#!OML:ASF X:\für Bonn\!DataBase\2005_08_11_Bastian_Final\c3d\Bastian.ASF
:FULLY-SPECIFIED
:DEGREES
169
root 6.1806 10.4103 -3.13967 148.494 75.8208 -207.197
lowerback 69.4122 -10.5863 9.70188
upperback 20.0303 3.38236 7.49283
thorax 1.72855 4.00911 3.52501
lowerneck -1.05814 -15.183 3.29879
upperneck -25.0362 -17.4441 20.4831
head -5.82711 -10.6153 6.68579
rclavicle -2.8625e-014 -5.4467e-014
rhumerus 28.9619 -10.9187 -44.7568
rradius 28.8561
rwrist 11.8689
rhand -50.9449 5.08574
rfingers 7.12502
rthumb -23.4958 -23.4994
lclavicle -2.8625e-014 -5.4467e-014
lhumerus 6.45438 -34.9128 76.421
lradius 49.9749
lwrist 25.9776
lhand -12.4672 -11.3983
lfingers 7.12502
lthumb 13.6068 18.137
rfemur -79.0614 -12.7679 11.4697
rtibia 118.431
rfoot -26.7835 -2.11153
rtoes -16.1405
lfemur -69.7168 -1.25516 -36.1182
ltibia 117.52
lfoot -31.4866 -13.1103
ltoes 22.0741
170
root 6.18264 10.42 -3.13661 148.47 75.7483 -207.166
lowerback 69.3501 -10.5526 9.70909
upperback 20.0991 3.43934 7.56016
thorax 1.79541 4.03902 3.57875
lowerneck -1.22196 -15.2229 3.26557
upperneck -25.1855 -17.4886 20.5367
head -5.83358 -10.6387 6.70246
rclavicle -1.39944e-013 -6.14245e-014
rhumerus 29.0437 -11.0218 -44.6107
rradius 28.5192
rwrist 11.6895
rhand -50.9776 4.91865
rfingers 7.12502
rthumb -23.5271 -23.6625
lclavicle -1.39944e-013 -6.14245e-014
lhumerus 6.70919 -34.985 76.4643
lradius 50.0563
lwrist 26.1048
lhand -12.5458 -11.4614
lfingers 7.12502
lthumb 13.531 18.079
rfemur -78.895 -12.7679 11.409
rtibia 118.372
rfoot -26.8094 -2.15089
rtoes -16.1217
lfemur -69.5584 -1.31659 -36.115
ltibia 117.412
lfoot -31.4771 -13.1428
ltoes 22.1252
171
root 6.18477 10.4344 -3.13443 148.346 75.6998 -207.212
lowerback 69.3395 -10.5327 9.7409
upperback 20.148 3.50262 7.59526
thorax 1.84912 4.07728 3.58666
lowerneck -1.35769 -15.2723 3.19743
upperneck -25.3433 -17.5324 20.6574
head -5.83616 -10.6663 6.74645
rclavicle 6.36111e-014 1.8487e-013
rhumerus 29.1348 -11.2161 -44.5271
rradius 28.1299
rwrist 11.6138
rhand -50.9862 4.62969
rfingers 7.12502
rthumb -23.5354 -23.9504
lclavicle 6.36111e-014 1.8487e-013
lhumerus 6.97538 -35.163 76.4404
lradius 50.1706
lwrist 26.2397
lhand -12.6758 -11.5216
lfingers 7.12502
lthumb 13.4057 18.0271
rfemur -78.6667 -12.7425 11.3485
rtibia 118.282
rfoot -26.8299 -2.23118
rtoes -16.1913
lfemur -69.3411 -1.32283 -36.1324
ltibia 117.278
lfoot -31.499 -13.1384
ltoes 21.9542
172
root 6.18625 10.452 -3.13253 148.191 75.6281 -207.327
lowerback 69.3342 -10.5101 9.75022
upperback 20.1561 3.5451 7.62512
thorax 1.85401 4.09874 3.60114
lowerneck -1.43746 -15.3113 3.16964
upperneck -25.4859 -17.5695 20.7072
head -5.85653 -10.6891 6.76929
rclavicle -5.725e-014 -6.69904e-014
rhumerus 29.2159 -11.323 -44.4271
rradius 27.7486
rwrist 11.477
rhand -50.9961 4.47887
rfingers 7.12502
rthumb -23.5449 -24.1
lclavicle -5.725e-014 -6.69904e-014
lhumerus 7.13854 -35.2808 76.4725
lradius 50.2764
lwrist 26.3597
lhand -12.78 -11.5932
lfingers 7.12502
lthumb 13.3053 17.9621
rfemur -78.4639 -12.7511 11.2562
rtibia 118.163
rfoot -26.8612 -2.2254
rtoes -16.1679
lfemur -69.1439 -1.37496 -36.1743
ltibia 117.103
lfoot -31.4794 -13.1019
ltoes 21.7127
173
root 6.1867 10.4745 -3.13027 147.903 75.5403 -207.552
lowerback 69.3798 -10.4761 9.69803
upperback 20.1409 3.56853 7.65299
thorax 1.82888 4.10442 3.64345
lowerneck -1.42185 -15.3259 3.10401
upperneck -25.6474 -17.5608 20.7705
head -5.89732 -10.6916 6.81223
rclavicle 1.59028e-014 -3.3197e-014
rhumerus 29.3337 -11.3964 -44.38
rradius 27.3406
rwrist 11.4112
rhand -50.9716 4.33126
rfingers 7.12502
rthumb -23.5213 -24.2506
lclavicle 1.59028e-014 -3.3197e-014
lhumerus 7.23311 -35.2833 76.5886
lradius 50.3386
lwrist 26.4096
lhand -12.8755 -11.6614
lfingers 7.12502
lthumb 13.2132 17.8999
rfemur -78.2027 -12.7361 11.1115
rtibia 118.002
rfoot -26.8701 -2.2452
rtoes -16.0791
lfemur -68.8834 -1.40707 -36.2388
ltibia 116.879
lfoot -31.449 -13.1126
ltoes 21.7168
174
root 6.18727 10.5 -3.12771 147.599 75.4706 -207.807
lowerback 69.477 -10.4184 9.64499
upperback 20.0738 3.61717 7.686
thorax 1.74454 4.11398 3.68034
lowerneck -1.33093 -15.34 3.0403
upperneck -25.8207 -17.5444 20.8317
head -5.95603 -10.694 6.86341
rclavicle -5.40694e-014 -4.19436e-014
rhumerus 29.3374 -11.3622 -44.2329
rradius 27.0056
rwrist 11.2623
rhand -50.9853 4.12892
rfingers 7.12502
rthumb -23.5345 -24.4513
lclavicle -5.40694e-014 -4.19436e-014
lhumerus 7.26156 -35.3861 76.6776
lradius 50.4762
lwrist 26.545
lhand -12.9542 -11.6674
lfingers 7.12502
lthumb 13.1374 17.8987
rfemur -77.938 -12.6913 10.9736
rtibia 117.814
rfoot -26.8702 -2.27687
rtoes -16.0948
lfemur -68.6113 -1.42687 -36.3031
ltibia 116.614
lfoot -31.3972 -13.1036
ltoes 21.6712
175
root 6.18683 10.5305 -3.12476 147.369 75.4062 -208.036
lowerback 69.5281 -10.3741 9.6526
upperback 20.0064 3.67493 7.70267
thorax 1.66496 4.13389 3.67088
lowerneck -1.29386 -15.3703 3.04453
upperneck -25.9933 -17.5579 20.8576
head -6.01484 -10.7118 6.89089
rclavicle -1.43125e-013 -6.77856e-014
rhumerus 29.3042 -11.3861 -44.0763
rradius 26.6741
rwrist 11.0866
rhand -50.9989 3.91324
rfingers 7.12502
rthumb -23.5475 -24.6653
lclavicle -1.43125e-013 -6.77856e-014
lhumerus 7.36999 -35.5512 76.6976
lradius 50.5968
lwrist 26.6053
lhand -13.0552 -11.65
lfingers 7.12502
lthumb 13.04 17.9224
rfemur -77.7085 -12.6264 10.8585
rtibia 117.582
rfoot -26.8385 -2.33257
rtoes -16.1616
lfemur -68.3952 -1.42889 -36.3548
ltibia 116.317
lfoot -31.3414 -13.0983
ltoes 21.469
176
root 6.18497 10.566 -3.12167 147.158 75.3473 -208.292
lowerback 69.5922 -10.3111 9.64275
upperback 19.9075 3.73565 7.7275
thorax 1.54604 4.14666 3.67329
lowerneck -1.22897 -15.3996 3.01509
upperneck -26.1362 -17.5741 20.8852
head -6.06428 -10.728 6.9227
rclavicle 4.45278e-014 3.72721e-014
rhumerus 29.2995 -11.3875 -43.9449
rradius 26.2976
rwrist 10.9538
rhand -51.0404 3.72051
rfingers 7.12502
rthumb -23.5873 -24.8529
lclavicle 4.45278e-014 3.72721e-014
lhumerus 7.41536 -35.6657 76.7603
lradius 50.7209
lwrist 26.6716
lhand -13.0958 -11.6233
lfingers 7.12502
lthumb 13.0009 17.9516
rfemur -77.5184 -12.5341 10.7541
rtibia 117.313
rfoot -26.7892 -2.3832
rtoes -16.1846
lfemur -68.2024 -1.44757 -36.4029
ltibia 115.974
lfoot -31.2168 -13.1032
ltoes 21.4449
